<?xml version="1.0" encoding="UTF-8" standalone="no"?><!DOCTYPE svg PUBLIC "-//W3C//DTD SVG 1.1//EN" "http://www.w3.org/Graphics/SVG/1.1/DTD/svg11.dtd"><svg width="100%" height="100%" viewBox="0 0 376 185" version="1.1" xmlns="http://www.w3.org/2000/svg" xmlns:xlink="http://www.w3.org/1999/xlink" xml:space="preserve" style="fill-rule:evenodd;clip-rule:evenodd;stroke-linejoin:round;stroke-miterlimit:1.41421;"><rect id="Prancheta3" x="0" y="0" width="375.433" height="184.12" style="fill:none;"/><path d="M328.017,76.469l-38.7,0l0,9.7l38.7,0l0,-9.7Zm-48.4,0l-38.7,0l0,9.7l38.7,0l0,-9.7Zm-58,0l-38.7,0l0,9.7l38.7,0l0,-9.7Zm-96.8,0l-9.7,0l0,9.7l9.7,0l0,-9.7Zm38.7,0l-9.7,0l0,9.7l9.7,0l0,-9.7Zm-58.1,-19.3l-9.6,0l0,29l9.6,0l0,-29Zm-29.2,-19.4l-38.5,0l0,48.1l9.6,0l0,-9.6l28.9,0l0,-9.6l-28.9,0l0,-19.3l28.9,0l0,-9.6Zm261.5,29l-9.7,0l0,9.7l9.7,0l0,-9.7Zm-96.8,-29l-9.7,0l0,38.7l9.7,0l0,-38.7Zm-58,9.7l-9.7,0l0,29l9.7,0l0,-9.7l29,0l0,-9.6l-29,0l0,-9.7Zm-48.4,19.3l-9.7,0l0,9.7l9.7,0l0,-9.7Zm19.3,0l-9.6,0l0,9.7l9.6,0l0,-9.7Zm174.2,-9.6l-29,0l0,9.6l29,0l0,-9.6Zm-183.8,0l-9.7,0l0,9.6l9.7,0l0,-9.6Zm-58.4,-9.8l-9.6,0l0,19.3l9.6,0l0,-19.3Zm213.2,0.1l-9.7,0l0,9.7l9.7,0l0,-9.7Zm-77.4,0l-9.7,0l0,9.7l9.7,0l0,-9.7Zm-87.1,0l-9.7,0l0,9.7l9.7,0l0,-9.7Zm19.3,0l-9.6,0l0,9.7l9.6,0l0,-9.7Zm183.9,-9.7l-38.7,0l0,9.7l38.7,0l0,-9.7Zm-125.8,0l-29,0l0,9.7l29,0l0,-9.7Zm-87.1,0l-9.7,0l0,9.7l9.7,0l0,-9.7Zm38.7,0l-9.7,0l0,9.7l9.7,0l0,-9.7Zm-58.1,0l-9.6,0l0,9.7l9.6,0l0,-9.7Z" style="fill:#2a2a2a;fill-rule:nonzero;"/><path d="M211.095,97.332c0.5,0.1 1,0.1 1.5,0.1c0.5,0.1 1,0.1 1.6,0.2c0.6,0.1 1.1,0.2 1.5,0.4c0.3,0.1 0.6,0.3 1,0.4c0.3,0.2 0.7,0.3 1,0.4c0.3,0.2 0.6,0.4 0.8,0.6c0.5,0.7 0.7,1.5 0.7,2.4c-0.3,0.8 -0.3,1.4 0,2c0,0.1 0.1,0.2 0,0.2c0,0.1 0,0.2 0,0.3c-0.1,0.1 -0.1,0.4 -0.1,0.7c0.1,0.3 0.1,0.7 0,1c-0.1,0.3 -0.2,0.7 -0.3,1c-0.2,0.4 -0.3,0.9 -0.3,1.4c0,0.4 -0.1,0.9 -0.2,1.4c-0.3,1 -0.7,2 -1.1,3c-0.5,1.1 -1,2.3 -1.6,3.3c-0.6,1.1 -1.1,2.2 -1.5,3.3c-0.4,1.3 -0.8,2.5 -1,3.7c-0.3,1.2 -0.5,2.4 -0.7,3.6c-0.5,2.3 -1,4.7 -1.5,7.1c-0.5,2.3 -0.8,4.7 -0.9,7c0,0.5 0,0.9 0,1.3c0.1,0.5 0,0.9 -0.1,1.4c-0.4,1.2 -0.4,2.4 0,3.7c0.3,1.3 1,2.3 2,3c0.2,0.1 0.5,0.1 0.8,0c0.4,-0.3 0.6,-0.5 0.7,-0.6c0.9,-0.8 1.6,-1.7 2,-2.4c0.2,-0.3 0.3,-0.5 0.5,-0.7c0.1,-0.2 0.2,-0.4 0.4,-0.6c1,-1.5 1.9,-3.1 2.6,-4.8c0.7,-1.6 1.6,-3.2 2.6,-4.7c1.3,-1.9 2.4,-3.8 3.3,-5.8c0.8,-2 1.8,-4 2.9,-6c0.5,-0.7 1,-1.5 1.4,-2.2l0.2,-0.3l0,-5.8c0,-1.2 -0.1,-2.4 -0.2,-3.6l-0.6,-4c-0.2,-0.8 -0.2,-1.6 0,-2.3c0.1,-0.7 0.3,-1.5 0.4,-2.3c0.1,-0.4 0.4,-0.6 1,-0.6l1.9,0.3c0.6,0.1 1.1,0.3 1.5,0.7c0.4,0.4 0.8,0.8 1.2,1.3c0.1,0.2 0.2,0.4 0.4,0.6c0.2,0.2 0.4,0.3 0.6,0.5c0.4,0.5 0.9,0.9 1.4,1.2c0.4,0.4 0.9,0.8 1.4,1.3c0.5,0.5 0.8,1.1 1.1,1.7c0.3,0.6 0.5,1.2 0.8,1.9c0,0.2 0.1,0.5 0.3,0.9c0,0 0.1,0.1 0.2,0.1c0.3,-0.5 0.5,-1 0.8,-1.5c0.2,-0.5 0.4,-1 0.7,-1.4c1.3,-2.5 2.8,-4.6 4.5,-6.4c0.9,-0.9 1.8,-1.6 2.8,-2.3c1.1,-0.7 2.2,-1.1 3.4,-1.4c1.5,-0.3 2.9,-0.1 4.2,0.7c1.3,0.7 2.3,1.8 2.8,3.3c0.5,1.2 0.8,2.5 1.1,3.8c0.2,1.3 0.4,2.5 0.6,3.8c0.2,0.6 0.2,1.1 0.2,1.7c-0.1,0.6 -0.1,1.1 -0.1,1.7c0,0.6 0.1,1.2 0.1,1.7c0.1,0.6 0.1,1.1 0,1.7c0,1 0,2.1 0,3.3c-0.1,1.3 -0.1,2.5 -0.2,3.5c0.2,-0.1 0.4,-0.2 0.6,-0.3c0.2,-0.1 0.3,-0.2 0.4,-0.3c0.6,-0.5 1.4,-1.1 2.4,-1.7c1,-0.7 2,-1.3 3.1,-1.9c1.1,-0.6 2.1,-1.2 3.1,-1.8c1,-0.6 1.9,-1 2.5,-1.4c0.5,-0.2 0.9,-0.6 1.4,-0.9c0.4,-0.4 0.9,-0.5 1.4,-0.4c-0.1,0.2 -0.1,0.3 0,0.5c0.1,0.2 0.1,0.3 0.1,0.3c-0.6,0.3 -1,0.7 -1.2,1.1c-0.2,0.4 -0.8,0.8 -1.7,1.3c-0.3,0.5 -0.9,1.1 -1.7,1.7c-0.9,0.6 -1.7,1.3 -2.6,1.9c-0.9,0.6 -1.8,1.2 -2.7,1.8c-0.8,0.5 -1.5,1 -2,1.5c-0.5,0.4 -1,0.8 -1.6,1.3c-0.5,0.4 -1,0.9 -1.5,1.4c-0.5,0.5 -0.9,1.1 -1,2c-0.4,1 -0.6,2 -0.7,3c-0.2,1 -0.6,2 -1.2,2.8c-0.3,0.5 -0.5,1 -0.6,1.5c-0.2,0.5 -0.4,1 -0.7,1.4c-0.2,0.4 -0.4,0.8 -0.6,1.1c-0.2,0.3 -0.6,0.6 -1.1,0.7c-0.4,0.5 -0.9,0.9 -1.6,1.2c-0.7,0.3 -1.1,0.8 -1.4,1.6c-0.3,0.2 -0.6,0.6 -0.9,0.9c-0.2,0.4 -0.6,0.6 -1.1,0.7c-0.1,0 -0.2,0.1 -0.2,0.1c0,0.1 -0.1,0.2 -0.2,0.2c-0.1,0.3 -0.3,0.5 -0.5,0.7c-0.2,0.1 -0.3,0.4 -0.4,0.6c-0.8,-0.3 -1.4,-0.7 -1.9,-1.1c-0.6,-0.4 -1.1,-0.9 -1.6,-1.4c-0.4,-0.3 -0.6,-0.6 -0.6,-1.1c-0.1,-0.4 -0.1,-0.8 0.1,-1.2c0.3,-2.7 1.3,-4.9 3,-6.6c1.4,-1.3 2.1,-2.8 2.1,-4.6c0.2,-1 0.4,-2.2 0.6,-3.3c0.2,-1.1 0.4,-2.2 0.5,-3.3c0.2,-1.3 0.2,-2.7 0.3,-4c0,-1.3 0.1,-2.6 0.2,-3.9c0.1,-2 0.2,-3.9 0.3,-5.7c0.1,-1.9 0.2,-3.8 0.3,-5.7l0,-1.1c0,-0.4 -0.1,-0.8 -0.2,-1.1c-0.6,0.1 -1.1,0.3 -1.5,0.6c-0.3,0.2 -0.7,0.6 -1,0.9c-1,1.2 -2,2.5 -2.8,3.9c-0.8,1.4 -1.5,2.8 -2.1,4.2c-0.3,0.8 -0.7,1.5 -1.1,2.2c-0.4,0.8 -0.8,1.5 -1.3,2.2c-0.4,0.7 -0.8,1.5 -1.1,2.2c-0.3,0.7 -0.5,1.5 -0.6,2.3c-0.2,1.4 -0.3,2.8 -0.5,4.1c-0.2,1.4 -0.4,2.8 -0.7,4.1c-0.1,0.5 -0.2,1.1 -0.2,1.7c0,0.6 -0.1,1.1 -0.1,1.7l-0.9,4.3c0.3,1.3 0.3,2.4 0.1,3.5c-0.2,1.1 -0.5,2.2 -1,3.5c-0.2,1.2 -0.2,2.4 -0.1,3.7c0.2,1.2 0.3,2.4 0.2,3.6c0,0.5 -0.1,0.9 -0.1,1.2c0,0.4 -0.1,0.8 -0.2,1.2c-0.1,1 -0.2,2.1 -0.1,3.2l0,5.2c0,0.6 -0.1,1.2 -0.1,1.9c0,0.3 -0.1,0.6 -0.2,1c-0.1,0.3 -0.1,0.7 -0.2,1c-0.1,-0.1 -0.1,-0.2 -0.1,-0.3c0,0 0,-0.1 -0.2,-0.2c-0.1,0.4 -0.2,0.8 -0.3,1.2c-0.1,0.3 -0.3,0.7 -0.4,1c-0.2,0.3 -0.2,0.4 -0.2,0.4c-0.5,0.3 -0.7,0.7 -0.7,1.1c-0.1,0.4 -0.2,0.8 -0.3,1.3c0,0.3 -0.1,0.6 -0.2,0.8c-0.1,0.2 -0.3,0.4 -0.7,0.5c-0.1,0 -0.2,0.1 -0.2,0.2c0,0.1 -0.1,0.2 -0.2,0.3c-0.8,0.9 -1.7,0.9 -2.6,0.1c-0.2,-0.2 -0.5,-0.5 -0.7,-0.7c-0.2,-0.2 -0.4,-0.5 -0.6,-0.8c-0.1,-0.1 -0.1,-0.2 -0.1,-0.3c0,-0.7 0.1,-1.3 0.1,-1.9c0,-0.6 0,-1.3 0,-2c0.1,-0.8 0.2,-1.7 0.2,-2.5c0.1,-0.9 0.1,-1.8 0.1,-2.6c0.1,-2.4 0.1,-4.8 0,-7.2l-0.3,-12.4l0,-7.1c0,-1.5 -0.1,-3 -0.1,-4.5c-0.1,-1.5 -0.1,-3 -0.1,-4.6c-1,2 -0.5,1 -1.7,3c-0.5,0.9 -0.8,1.8 -1,2.8c-0.2,0.9 -0.6,1.9 -1.2,2.7c-0.5,0.7 -0.9,1.4 -1,2.1c-0.2,0.7 -0.5,1.5 -0.8,2.2c-0.1,0.3 -0.2,0.7 -0.4,1.1c-0.1,0.3 -0.3,0.7 -0.6,1c-0.5,0.6 -0.9,1.3 -1.3,2c-0.4,0.7 -0.7,1.4 -1,2.2c-0.3,0.6 -0.7,1.2 -1.1,1.8c-0.4,0.5 -0.9,1 -1.6,1.5c-0.6,0.4 -1.3,1 -1.8,1.5c-0.6,0.6 -1.3,1.1 -2.2,1.4c-0.1,0 -0.2,0 -0.2,0c0,0 -0.1,0.1 -0.2,0.1c-1.8,0.1 -3.4,-0.1 -5,-0.7c-1.1,-0.3 -2,-0.9 -2.8,-1.8c-0.7,-0.8 -1.2,-1.6 -1.6,-2.5c-0.4,-0.9 -0.8,-1.8 -1.1,-2.8c0,-0.2 -0.1,-0.5 -0.1,-0.7c0,-0.3 0,-0.5 -0.1,-0.8c-0.1,-0.6 -0.2,-1.1 -0.2,-1.7c0,-0.6 -0.1,-1.2 -0.2,-1.8l0,-0.4c0,-0.9 0,-1.8 -0.1,-2.7c0,-1 0,-1.9 0.1,-2.8c0.2,-4.2 0.9,-8.3 2.1,-12.2c1.2,-4 2.5,-7.9 4,-11.8c0.3,-0.9 0.7,-1.8 1,-2.7c0.4,-0.9 0.7,-1.7 1.1,-2.6c0.2,-0.6 0.4,-1.3 0.5,-2c0.1,-0.7 0.3,-1.3 0.5,-2c-0.2,-0.1 -0.3,-0.1 -0.5,-0.1c-0.3,0.1 -0.5,0.2 -0.5,0.3c-1.9,1.5 -3.6,3.1 -5.2,4.9c-1.6,1.7 -3.3,3.4 -5,4.9c-1.2,1.1 -2.1,2.2 -2.8,3.5c-0.8,1.4 -1.5,2.7 -2.1,4c-0.9,1.4 -1.7,2.8 -2.5,4.2c-0.8,1.5 -1.6,2.9 -2.5,4.3c-0.2,0.1 -0.3,0.3 -0.4,0.5c-0.3,0.7 -0.6,1.3 -0.9,1.9c-0.4,0.7 -0.7,1.3 -0.9,2c-0.1,0.1 -0.1,0.2 -0.2,0.3c-0.1,0.1 -0.1,0.3 -0.2,0.4c-0.2,0.3 -0.3,0.6 -0.5,0.9c-0.2,0.4 -0.4,0.7 -0.5,1.1c-0.1,0.5 -0.2,0.9 -0.2,1.3c0,0.2 -0.1,0.4 -0.1,0.6c-0.1,0.2 -0.1,0.4 -0.1,0.6l0,0.9c-0.3,0.1 -0.5,0.1 -0.8,0c-0.3,-0.1 -0.6,0 -0.9,0.3c0.1,0.2 0.1,0.3 0.1,0.4c0,0.1 0.1,0.3 0.1,0.5c-0.2,0 -0.4,0 -0.5,0c-0.4,0 -0.7,-0.1 -0.9,-0.3c-0.2,-0.1 -0.4,-0.3 -0.6,-0.4c-0.2,-0.1 -0.4,-0.2 -0.6,-0.4c-0.6,-0.2 -1.1,-0.7 -1.5,-1.6c-0.3,-1.1 -0.5,-2.4 -0.5,-3.6c-0.1,-1.3 0,-2.4 0.1,-3.5c0.2,-1.2 0.4,-2.3 0.7,-3.6c0.1,-0.3 0.1,-0.6 0.2,-0.9c0.1,-0.3 0.2,-0.7 0.3,-1c0.6,-1.8 1.1,-3.6 1.7,-5.4c0.5,-1.8 1,-3.6 1.5,-5.4c0.1,-0.1 0.1,-0.2 0.1,-0.3c0,0 0,-0.1 0.1,-0.3c0.3,-0.8 0.6,-1.7 0.8,-2.6c0.2,-0.9 0.4,-1.8 0.5,-2.6c0,-0.4 0.1,-0.6 0.2,-0.9c0,-0.2 0,-0.5 -0.1,-0.8c-0.2,0.2 -0.3,0.3 -0.3,0.2c-0.2,0.2 -0.4,0.4 -0.6,0.8c-0.2,0.4 -0.5,0.8 -1,1c-0.7,0.5 -1.4,1.3 -2,2.3c-0.6,1.1 -1.1,2 -1.7,2.6c-0.6,0.9 -1.3,1.9 -1.9,2.8c-0.6,0.9 -1.1,1.9 -1.6,2.9c-0.5,1 -0.9,2 -1.3,3c-0.4,1 -0.9,2 -1.5,3c-0.4,0.7 -0.7,1.5 -1,2.2c-0.3,0.8 -0.7,1.6 -1,2.4c0,0.1 -0.1,0.3 -0.1,0.5c-0.1,0.2 -0.1,0.3 -0.1,0.5c0,0.6 -0.1,1.1 -0.4,1.6c-0.2,0.4 -0.5,0.9 -0.7,1.4c-0.1,0.3 -0.3,0.6 -0.5,0.8c-0.2,0.3 -0.3,0.6 -0.4,0.9c-0.3,0.6 -0.7,1.1 -1.1,1.6c-0.5,0.3 -0.9,0.7 -1.3,1.2c-0.2,0.3 -0.5,0.6 -0.8,0.8c-0.2,0.2 -0.5,0.4 -0.8,0.6c-0.4,0.3 -0.8,0.3 -1.1,0c-0.1,-0.1 -0.2,-0.1 -0.3,-0.1c-0.1,-0.1 -0.2,-0.1 -0.4,-0.2c-0.3,0 -0.6,-0.1 -0.9,-0.4c-0.2,-0.3 -0.5,-0.4 -0.9,-0.4l-0.2,0c-0.6,-0.1 -1.1,-0.3 -1.4,-0.7c-0.2,-0.5 -0.4,-0.9 -0.5,-1.4l0,-2.2c0,-1 0,-2 0.1,-2.9c0,-1 0,-2 0,-3l0.1,-0.8l-0.2,0.4c-0.6,1.4 -1.2,2.9 -2,4.5c-0.7,1.5 -1.5,3 -2.5,4.5c-0.9,1.4 -2,2.7 -3.2,3.9c-1.1,1.1 -2.5,2 -4,2.5c-0.7,0.3 -1.6,0.3 -2.7,0.2c-1.1,-0.1 -2,-0.4 -2.6,-1c-0.3,-0.2 -0.6,-0.6 -0.8,-1c-0.6,-1 -1,-2 -1.1,-3c-0.1,-1.1 -0.1,-2.2 -0.1,-3.3c0.1,-0.8 0.1,-1.7 0.2,-2.5c0.1,-0.9 0.2,-1.7 0.3,-2.6l0,-0.8c-0.1,0.1 -0.3,0.2 -0.4,0.3c-0.1,0.1 -0.2,0.2 -0.3,0.3c-0.6,0.5 -1.2,1 -1.8,1.4c-0.7,0.4 -1.4,0.6 -2.2,0.6c-0.6,0.1 -1.1,0.2 -1.6,0.4c-0.6,0.1 -1.1,0.2 -1.6,0.3c-1.1,0 -2,-0.1 -2.9,-0.4c-0.9,-0.3 -1.7,-0.9 -2.4,-1.9c-0.7,-1.2 -0.4,-0.6 -0.9,-1.9c-0.2,0.3 0,0.1 -0.3,0.5c-0.2,0.3 -0.3,0.5 -0.5,0.9c-0.1,0.1 -0.2,0.2 -0.3,0.3c-0.4,0.3 -0.7,0.6 -0.9,0.9c-0.3,0.4 -0.5,0.7 -0.8,1l-0.1,0.1c-0.4,0.8 -1,1.4 -1.6,1.8c-0.6,0.5 -1.2,1.1 -1.8,1.7l-0.8,1.1c-0.5,0.6 -1,1.3 -1.5,1.8c-0.6,0.6 -1.2,1.1 -2,1.6c-0.8,0.5 -1.7,1 -2.6,1.5c-0.8,0.5 -1.8,0.9 -2.8,1.2c-0.8,0.2 -1.6,0.5 -2.4,0.7c-0.8,0.2 -1.6,0.4 -2.4,0.5c-0.6,0 -1.1,-0.1 -1.4,-0.2c-0.5,-0.3 -0.8,-0.4 -1.1,-0.5c-0.9,-0.4 -1.7,-1 -2.4,-1.7c-0.3,-0.4 -0.4,-0.6 -0.5,-0.6c-0.6,-0.6 -1.1,-1.2 -1.4,-1.9c-0.3,-0.6 -0.5,-1.3 -0.8,-2.1l-0.2,-0.3c-0.1,-0.7 0,-0.4 -0.2,-0.9c-0.2,-0.6 -0.3,-1.3 -0.3,-2c-0.1,-0.8 -0.1,-1.5 -0.1,-2.2l0,-2.1c-0.1,-0.6 -0.2,-1.2 -0.1,-1.7c0.1,-0.5 0.1,-1 0.2,-1.5c0.1,-0.3 0.2,-0.6 0.2,-1c0,-0.4 0,-0.7 0.1,-1c0,-0.9 0.1,-1.9 0.2,-2.9c0.2,-1.1 0.4,-2.2 0.7,-3.2c0.3,-1.1 0.5,-2.1 0.6,-3.2c0.1,-0.1 0.1,-0.2 0.1,-0.2c0,-0.1 0,-0.1 0.1,-0.3c0.1,-0.5 0.2,-1 0.4,-1.5c0.2,-0.6 0.3,-1.1 0.6,-1.6c0.2,-0.5 0.5,-1.1 0.7,-1.6c0.3,-0.6 0.5,-1.1 0.7,-1.6c0.3,-0.4 0.5,-0.9 0.7,-1.2c0.2,-0.4 0.5,-0.8 0.7,-1.2c0.1,-0.3 0.2,-0.4 0.2,-0.5c0.3,-0.5 0.6,-0.9 1,-1.2c0.4,-0.3 0.8,-0.7 1.3,-1c0.6,-0.3 1.1,-0.5 1.7,-0.8c0.5,-0.2 1.1,-0.5 1.7,-0.7c0.3,-0.1 0.6,-0.2 1,-0.3c0.3,0 0.7,-0.1 1,-0.3c0.3,0 0.7,-0.1 1,-0.1c0.4,0 0.7,-0.1 1,-0.1c0.3,-0.1 0.6,-0.1 1.1,-0.1c1,-0.1 1.9,-0.1 2.7,0.2c0.9,0.2 1.7,0.5 2.6,1c0.1,0 0.2,0.1 0.4,0.2c0.1,0.1 0.3,0.2 0.4,0.3c0.3,0.2 0.5,0.5 0.5,0.8c0,0.2 0.1,0.4 0.1,0.6c0.1,0.2 0.2,0.3 0.2,0.5c0.1,0.3 0.3,0.6 0.3,0.9c0.1,0.3 0.1,0.7 0.1,1c-0.1,0.2 -0.1,0.3 0,0.5c0,0.5 -0.1,0.9 -0.2,1.3c-0.2,0.4 -0.4,0.8 -0.5,1.2c-0.3,0.3 -0.7,0.6 -1.2,0.7c-0.5,0.2 -0.9,0.2 -1.2,0.1c-0.2,-0.1 -0.3,-0.3 -0.3,-0.5c0.1,-0.3 0.1,-0.6 0.1,-0.9c0,-0.3 0.1,-0.6 0.2,-0.9c0.1,-0.4 0.1,-0.7 0.1,-1.1c-0.1,-0.3 -0.1,-0.6 -0.2,-1c0,-0.3 -0.1,-0.6 -0.4,-0.9c-0.2,-0.1 -0.4,-0.3 -0.6,-0.4c-0.2,-0.2 -0.4,-0.3 -0.7,-0.4l-0.5,-0.2c-0.8,-0.4 -0.5,-0.2 -1.1,-0.6c-0.3,-0.1 -0.6,-0.1 -0.9,0c-0.2,0.2 -0.4,0.4 -0.7,0.5c-0.2,0.2 -0.4,0.4 -0.6,0.5c-0.3,0.2 -0.5,0.4 -0.6,0.7c-0.4,1 -0.9,2 -1.6,2.8c-0.6,0.7 -1.1,1.5 -1.3,2.4c-0.1,0.5 -0.3,0.9 -0.5,1.3c-0.1,0.4 -0.3,0.8 -0.4,1.3c-0.1,0.3 -0.2,0.5 -0.2,0.7c-0.1,0.6 -0.2,1.2 -0.4,1.7c-0.1,0.6 -0.3,1.2 -0.5,1.8c-0.1,0.4 -0.2,0.8 -0.4,1.1c-0.1,0.4 -0.2,0.9 -0.2,1.3c0,0.1 -0.1,0.3 -0.1,0.4c-0.1,0.2 -0.1,0.4 -0.2,0.5c-0.3,0.8 -0.5,1.7 -0.6,2.6c-0.1,0.5 -0.2,1 -0.3,1.4c-0.1,0.5 -0.2,1 -0.3,1.5c-0.1,0 -0.1,0.1 -0.1,0.3c0,0.7 -0.1,1.3 -0.1,1.9c0,0.6 -0.1,1.3 -0.1,1.9c0,0.3 0,0.7 0.1,1.1l0,0.5c-0.1,0.4 -0.1,0.7 0,1.1c0.1,0.4 0.1,0.7 0.1,1.1l0,1c-0.1,0.7 0,1.4 0.2,1.9c0.1,0.2 0.2,0.4 0.2,0.6c0.1,0.2 0.1,0.4 0.3,0.7c0,0.2 0.1,0.5 0.1,0.7c0.1,0.3 0.2,0.5 0.3,0.8c0.2,0.5 0.5,0.9 0.8,1.2c0.6,0.5 1.2,0.6 1.8,0.4c0.3,-0.1 0.6,-0.2 0.8,-0.2c0.8,-0.1 1.5,-0.3 2.2,-0.6c0.8,-0.3 1.5,-0.7 2.2,-1.1c0.3,-0.2 0.6,-0.4 0.8,-0.7c0.3,-0.2 0.5,-0.5 0.8,-0.8c0.3,-0.4 0.7,-0.8 1.1,-1.2l1.1,-1.1c0.4,-0.5 0.9,-1 1.4,-1.5c0.5,-0.5 1,-1 1.5,-1.5c0.6,-0.7 1.3,-1.4 2,-2.2c0.6,-0.7 1.3,-1.5 1.9,-2.3c0,-0.1 0.1,-0.1 0.1,-0.2l0.1,-0.1c1,-1.2 0.6,-0.6 1.3,-1.6c-0.1,-2.5 -0.1,-1.3 0.2,-3.5c0.1,-0.5 0.2,-1 0.2,-1.4c0.1,-0.4 0.1,-0.9 0.3,-1.3l0.8,-2.8c0.2,-0.5 0.4,-1.1 0.6,-1.6c0.2,-0.6 0.4,-1.1 0.5,-1.7c0.6,-2.2 1.6,-4.1 3.2,-5.9c0.4,-0.5 0.9,-1.1 1.4,-1.7c0.4,-0.5 0.8,-0.9 1.3,-1.2c0.5,-0.3 1.1,-0.6 1.6,-0.7l2.2,-0.9c0.7,-0.2 1.3,-0.3 2,-0.4c0.6,0 1.2,-0.1 1.9,-0.2c0.4,0 0.6,0 0.8,-0.1c0.6,-0.2 1.1,-0.2 1.6,-0.2c0.5,0 1.1,0.1 1.6,0.2c0.4,0.1 0.8,0.2 1.1,0.5c0.4,0.3 0.7,0.6 1,1c0.2,0.3 0.4,0.6 0.6,0.8c0.2,0.3 0.4,0.6 0.5,0.9c0.5,1 0.4,1.9 -0.4,2.7c-0.2,0.1 -0.5,0.2 -0.9,0.2c-0.2,0.1 -0.4,-0.1 -0.5,-0.4c-0.1,-0.8 -0.4,-1.4 -0.8,-1.9c-0.5,-0.5 -0.9,-1 -1.4,-1.6l-0.3,-0.3c-1.1,-0.3 -2.1,-0.4 -3.1,-0.2c-0.8,0.2 -1.6,0.5 -2.3,0.9c-0.8,0.3 -1.4,0.9 -1.9,1.7c-0.6,1.2 -1.2,2.4 -1.6,3.7c-0.4,1.3 -0.9,2.6 -1.4,3.8l-1.2,3.6c-0.5,1.5 -0.9,2.9 -1.2,4.3c-0.2,1.4 -0.2,2.9 0.2,4.4c0.2,0.8 0.7,1.5 1.7,2.1c1,0.5 1.8,0.6 2.6,0.2c1.1,-0.4 2,-1.3 2.9,-2.7c0.9,-1.3 1.6,-2.5 2.1,-3.4c0.2,-0.4 0.3,-0.7 0.3,-1.1c0.1,-0.3 0.2,-0.7 0.3,-1c0.1,-0.4 0.2,-0.8 0.3,-1.2c0,-0.4 0.1,-0.7 0.2,-1c0.2,-0.6 0.3,-1.1 0.5,-1.7c0.2,-0.5 0.4,-1.1 0.6,-1.6c0.2,-0.6 0.4,-1.2 0.6,-1.7c0.2,-0.6 0.4,-1.2 0.5,-1.8c0.3,-0.9 0.8,-1.5 1.6,-1.5c0.3,-0.1 0.5,-0.2 0.8,-0.3c0.3,0 0.6,0 0.9,-0.1c0.7,-0.1 1.2,0.3 1.3,0.9l0.3,0.6c0.1,0.5 0.1,0.9 -0.2,1.3c-0.2,0.4 -0.2,0.8 0,1.3c0.1,0.3 0.1,0.5 0.1,0.7c0,0.2 -0.1,0.4 -0.1,0.7c0,1 -0.1,2 -0.4,3.2c-0.2,1.2 -0.5,2.3 -0.7,3.2c-0.1,1.1 -0.3,2.1 -0.3,3c-0.1,0.8 -0.2,1.8 -0.4,2.9c-0.1,0.3 -0.2,0.7 -0.3,1c0,0.4 -0.1,0.7 -0.1,1.1c-0.2,0.6 -0.2,1.3 -0.3,2c-0.1,0.7 -0.2,1.4 -0.3,2.2c0,0.3 -0.1,0.6 -0.1,0.8c0,0.3 -0.1,0.6 -0.1,0.9c0,0.2 0,0.5 -0.1,1.1c0,0.5 0,1 0,1.5c0,0.5 0.2,0.9 0.5,1.2c0.2,0.3 0.7,0.2 1.4,-0.1c0.3,-0.1 0.9,-0.6 1.6,-1.3c0.8,-0.7 1.3,-1.2 1.6,-1.5c0.4,-0.7 1,-1.5 1.7,-2.5c0.6,-1 1.2,-1.9 1.5,-2.7c0.8,-1.5 1.6,-3.3 2.5,-5.4c1,-2.1 1.8,-3.9 2.5,-5.4c0.1,-0.3 0.2,-0.5 0.2,-0.8c0,-0.2 0,-0.2 0.1,-0.2c0.2,-1.5 0,-0.5 0.5,-3c0.1,-1.1 0.3,-2.2 0.3,-3.4c0.1,-1.1 0.3,-2.2 0.6,-3.3c0.3,-1.2 0.5,-2.4 0.8,-3.7c0.2,-1.2 0.5,-2.5 0.7,-3.7c0.1,-0.3 0.1,-0.7 0.1,-1.1l0,-1.1c0,-0.3 0.1,-0.5 0.5,-0.5c0.2,-0.1 0.5,-0.1 0.8,0c0.2,0 0.3,0 0.5,0c0.1,0.1 0.3,0.1 0.5,0.1c0.7,0.1 1.2,0.4 1.6,0.8c0.2,0.2 0.5,0.4 0.8,0.5c0.3,0.2 0.5,0.5 0.5,0.9l0,1.6c0,0.6 0.2,1.2 0.5,1.7c0.5,0.6 0.7,1.2 0.6,2c-0.1,0.7 -0.3,1.4 -0.4,2.1c-0.2,0.9 -0.4,1.9 -0.4,2.9c0,0.9 -0.1,1.9 -0.2,2.9c-0.1,1.1 -0.2,2.2 -0.3,3.3c0,1.1 0,2.3 -0.1,3.4c0,0.2 -0.1,0.5 -0.2,1c-0.1,0.3 -0.2,0.7 -0.2,1.2l0,1.7c0.1,-0.2 0.2,-0.2 0.2,-0.2l0.1,-0.1c0.3,-0.5 0.5,-1 0.7,-1.5c0.2,-0.5 0.5,-0.9 0.8,-1.4c0.3,-0.5 0.5,-1 0.7,-1.4c0.3,-0.4 0.5,-0.8 0.8,-1.3c0.6,-0.8 1.1,-1.7 1.6,-2.5c0.4,-0.9 0.9,-1.8 1.4,-2.7c0.2,-0.3 0.4,-0.6 0.6,-0.9c0.1,-0.4 0.4,-0.7 0.6,-1l1.2,-1.8c0.2,-0.4 0.4,-0.6 0.6,-0.8l2.5,-2.8c0.3,-0.4 0.7,-0.8 1.2,-1.1c0.4,-0.3 0.8,-0.7 1.3,-1c0.6,-0.3 1.1,-0.6 1.6,-1.1c0.3,-0.2 0.7,-0.3 1.2,-0.3l0.4,0c0.4,0 0.8,0 1.2,-0.1c0.4,-0.1 0.8,0 1.3,0.3l1.1,0.5c0.3,0.2 0.7,0.4 1,0.7c0.3,0 0.6,0.2 1,0.5c0,0.5 0,1 0,1.3c0,0.2 0.1,0.4 0.2,0.6c0.1,0.2 0.1,0.4 0.1,0.7c0.1,0.5 0.2,1 0.2,1.6c-0.1,0.5 -0.2,1.1 -0.3,1.6c0,0.7 -0.1,1.3 -0.2,1.9c0,0.6 -0.1,1.2 -0.2,1.8c-0.2,0.5 -0.2,0.9 -0.3,1.3c0,0.5 -0.1,0.9 -0.2,1.3c0,0.2 0,0.4 -0.2,0.5c-0.1,0.2 -0.3,0.6 -0.4,1.3c0,0.1 -0.1,0.4 -0.2,0.9c0,0.2 0,0.4 -0.1,0.5c0.2,0 0.3,-0.1 0.5,-0.3c0.5,-0.8 1,-1.7 1.6,-2.6c0.5,-0.9 1,-1.8 1.5,-2.6c0.1,-0.2 0.2,-0.3 0.2,-0.4c0.1,-0.1 0.2,-0.3 0.3,-0.4c0.7,-0.8 1.3,-1.6 1.8,-2.4c0.6,-0.8 1.2,-1.6 1.8,-2.5c0.2,-0.1 0.2,-0.3 0.3,-0.4c0.1,-0.2 0.2,-0.3 0.3,-0.4c0.8,-1.5 1.9,-2.9 3.3,-4.2c0.5,-0.5 1,-1 1.5,-1.6c0.6,-0.5 1.1,-1 1.6,-1.5c1.1,-1 2.1,-1.8 3.1,-2.3l0.7,-0.3c0.1,-0.1 0.3,-0.2 0.5,-0.3l0.6,-0.3l0.7,0Zm38,43.5c-0.1,0.1 -0.2,0.2 -0.3,0.2c0,0 -0.1,0.1 -0.2,0.2l-1.3,3c0,0.3 0,0.6 0.1,0.7c0,0.1 0,0.2 0.1,0.2l0,0.1c0.7,-0.4 1.2,-1.1 1.5,-2c0.3,-0.9 0.3,-1.7 0.1,-2.4Z" style="fill:#2a2a2a;fill-opacity:0.5;fill-rule:nonzero;"/><g><path d="M59.605,124.924c-0.864,1.056 -2.12,1.896 -3.768,2.52c-1.648,0.624 -3.576,0.936 -5.784,0.936l-5.568,0l0,13.344l-6.768,0l0,-33.504l12.336,0c3.872,0 6.856,0.968 8.952,2.904c2.096,1.936 3.144,4.216 3.144,6.84c0,2.624 -0.848,4.944 -2.544,6.96Zm-15.12,-1.728l5.568,0c1.696,0 2.992,-0.44 3.888,-1.32c0.896,-0.88 1.344,-2.072 1.344,-3.576c0,-1.504 -0.448,-2.696 -1.344,-3.576c-0.896,-0.88 -2.192,-1.32 -3.888,-1.32l-5.568,0l0,9.792Z" style="fill:#2a2a2a;fill-rule:nonzero;"/><path d="M106.117,108.22l6.768,0l0,28.368l10.752,0l0,5.136l-17.52,0l0,-33.504Z" style="fill:#2a2a2a;fill-rule:nonzero;"/><path d="M191.461,141.724l-2.16,-6.288l-13.056,0l-2.16,6.288l-7.152,0l11.856,-33.6l8.016,0l11.808,33.6l-7.152,0Zm-13.44,-11.472l9.552,0l-4.8,-13.968l-4.752,13.968Z" style="fill:#2a2a2a;fill-rule:nonzero;"/><path d="M240.325,124.876c0,-4.96 1.656,-9.056 4.968,-12.288c3.312,-3.232 7.368,-4.848 12.168,-4.848c3.648,0 6.888,0.928 9.72,2.784c2.832,1.856 4.856,4.464 6.072,7.824l-8.112,0c-1.504,-2.944 -4.064,-4.416 -7.68,-4.416c-3.04,0 -5.512,1 -7.416,3c-1.904,2 -2.856,4.656 -2.856,7.968c0,3.312 0.952,5.968 2.856,7.968c1.904,2 4.376,3 7.416,3c3.584,0 6.144,-1.472 7.68,-4.416l8.112,0c-1.216,3.36 -3.24,5.96 -6.072,7.8c-2.832,1.84 -6.072,2.76 -9.72,2.76c-4.832,0 -8.896,-1.616 -12.192,-4.848c-3.296,-3.232 -4.944,-7.328 -4.944,-12.288Z" style="fill:#2a2a2a;fill-rule:nonzero;"/><path d="M337.333,108.124l0,5.184l-12.576,0l0,8.784l11.136,0l0,5.184l-11.136,0l0,9.264l12.576,0l0,5.184l-19.344,0l0,-33.6l19.344,0Z" style="fill:#2a2a2a;fill-rule:nonzero;"/></g></svg>